<mxfile host="app.diagrams.net" agent="Mozilla/5.0 (Windows NT 10.0; Win64; x64; rv:128.0) Gecko/20100101 Firefox/128.0" version="24.8.2" pages="5">
  <diagram id="XBvq9VJZWqMZsw_GsI3B" name="Page-1">
    <mxGraphModel dx="946" dy="620" grid="0" gridSize="10" guides="1" tooltips="1" connect="1" arrows="1" fold="1" page="1" pageScale="1" pageWidth="827" pageHeight="1169" math="0" shadow="0">
      <root>
        <mxCell id="0" />
        <mxCell id="1" parent="0" />
        <mxCell id="QYstFRgwMJ7G4-ozk93F-3" value="&lt;u&gt;verwaltung: Liste&lt;/u&gt;" style="html=1;" vertex="1" parent="1">
          <mxGeometry x="99" y="156" width="100" height="30" as="geometry" />
        </mxCell>
        <mxCell id="QYstFRgwMJ7G4-ozk93F-7" value="naechster" style="edgeStyle=orthogonalEdgeStyle;rounded=0;orthogonalLoop=1;jettySize=auto;html=1;exitX=1;exitY=0.5;exitDx=0;exitDy=0;" edge="1" parent="1" source="QYstFRgwMJ7G4-ozk93F-5" target="QYstFRgwMJ7G4-ozk93F-6">
          <mxGeometry x="-0.0145" y="10" relative="1" as="geometry">
            <mxPoint as="offset" />
          </mxGeometry>
        </mxCell>
        <mxCell id="QYstFRgwMJ7G4-ozk93F-5" value="&lt;u&gt;ali: Patient&lt;/u&gt;" style="html=1;" vertex="1" parent="1">
          <mxGeometry x="99" y="238" width="100" height="30" as="geometry" />
        </mxCell>
        <mxCell id="QYstFRgwMJ7G4-ozk93F-6" value="&lt;u&gt;nadine: Patient&lt;/u&gt;" style="html=1;" vertex="1" parent="1">
          <mxGeometry x="268" y="238" width="100" height="30" as="geometry" />
        </mxCell>
        <mxCell id="QYstFRgwMJ7G4-ozk93F-8" value="naechster" style="edgeStyle=orthogonalEdgeStyle;rounded=0;orthogonalLoop=1;jettySize=auto;html=1;exitX=1;exitY=0.5;exitDx=0;exitDy=0;" edge="1" parent="1" source="QYstFRgwMJ7G4-ozk93F-9">
          <mxGeometry x="-0.0145" y="10" relative="1" as="geometry">
            <mxPoint x="618" y="253" as="targetPoint" />
            <mxPoint as="offset" />
          </mxGeometry>
        </mxCell>
        <mxCell id="QYstFRgwMJ7G4-ozk93F-9" value="&lt;u&gt;ebru: Patient&lt;/u&gt;" style="html=1;" vertex="1" parent="1">
          <mxGeometry x="437" y="238" width="100" height="30" as="geometry" />
        </mxCell>
        <mxCell id="QYstFRgwMJ7G4-ozk93F-10" value="naechster" style="edgeStyle=orthogonalEdgeStyle;rounded=0;orthogonalLoop=1;jettySize=auto;html=1;exitX=1;exitY=0.5;exitDx=0;exitDy=0;" edge="1" parent="1" source="QYstFRgwMJ7G4-ozk93F-6">
          <mxGeometry x="-0.0145" y="10" relative="1" as="geometry">
            <mxPoint x="438" y="253" as="targetPoint" />
            <mxPoint as="offset" />
            <mxPoint x="547" y="263" as="sourcePoint" />
          </mxGeometry>
        </mxCell>
        <mxCell id="QYstFRgwMJ7G4-ozk93F-11" value="" style="shape=umlDestroy;whiteSpace=wrap;html=1;strokeWidth=3;" vertex="1" parent="1">
          <mxGeometry x="616" y="238" width="30" height="30" as="geometry" />
        </mxCell>
        <mxCell id="QYstFRgwMJ7G4-ozk93F-13" value="erster" style="edgeStyle=orthogonalEdgeStyle;rounded=0;orthogonalLoop=1;jettySize=auto;html=1;exitX=0.5;exitY=1;exitDx=0;exitDy=0;entryX=0.5;entryY=0;entryDx=0;entryDy=0;" edge="1" parent="1" source="QYstFRgwMJ7G4-ozk93F-3" target="QYstFRgwMJ7G4-ozk93F-5">
          <mxGeometry x="-0.0385" y="21" relative="1" as="geometry">
            <mxPoint x="209" y="263" as="sourcePoint" />
            <mxPoint x="278" y="263" as="targetPoint" />
            <mxPoint as="offset" />
          </mxGeometry>
        </mxCell>
        <mxCell id="QYstFRgwMJ7G4-ozk93F-14" value="&lt;u&gt;verwaltung: Liste&lt;/u&gt;" style="html=1;" vertex="1" parent="1">
          <mxGeometry x="102" y="316" width="100" height="30" as="geometry" />
        </mxCell>
        <mxCell id="QYstFRgwMJ7G4-ozk93F-15" value="naechster" style="edgeStyle=orthogonalEdgeStyle;rounded=0;orthogonalLoop=1;jettySize=auto;html=1;exitX=1;exitY=0.5;exitDx=0;exitDy=0;entryX=0;entryY=0.5;entryDx=0;entryDy=0;fillColor=#dae8fc;strokeColor=#6c8ebf;fontColor=#7EA6E0;" edge="1" parent="1" source="QYstFRgwMJ7G4-ozk93F-16" target="QYstFRgwMJ7G4-ozk93F-23">
          <mxGeometry x="-0.0145" y="10" relative="1" as="geometry">
            <mxPoint as="offset" />
            <Array as="points">
              <mxPoint x="213" y="413" />
              <mxPoint x="213" y="483" />
            </Array>
          </mxGeometry>
        </mxCell>
        <mxCell id="QYstFRgwMJ7G4-ozk93F-16" value="&lt;u&gt;ali: Patient&lt;/u&gt;" style="html=1;" vertex="1" parent="1">
          <mxGeometry x="102" y="398" width="100" height="30" as="geometry" />
        </mxCell>
        <mxCell id="QYstFRgwMJ7G4-ozk93F-17" value="&lt;u&gt;nadine: Patient&lt;/u&gt;" style="html=1;" vertex="1" parent="1">
          <mxGeometry x="362" y="398" width="100" height="30" as="geometry" />
        </mxCell>
        <mxCell id="QYstFRgwMJ7G4-ozk93F-18" value="naechster" style="edgeStyle=orthogonalEdgeStyle;rounded=0;orthogonalLoop=1;jettySize=auto;html=1;exitX=1;exitY=0.5;exitDx=0;exitDy=0;" edge="1" parent="1" source="QYstFRgwMJ7G4-ozk93F-19">
          <mxGeometry x="-0.0145" y="10" relative="1" as="geometry">
            <mxPoint x="712" y="413" as="targetPoint" />
            <mxPoint as="offset" />
          </mxGeometry>
        </mxCell>
        <mxCell id="QYstFRgwMJ7G4-ozk93F-19" value="&lt;u&gt;ebru: Patient&lt;/u&gt;" style="html=1;" vertex="1" parent="1">
          <mxGeometry x="531" y="398" width="100" height="30" as="geometry" />
        </mxCell>
        <mxCell id="QYstFRgwMJ7G4-ozk93F-20" value="naechster" style="edgeStyle=orthogonalEdgeStyle;rounded=0;orthogonalLoop=1;jettySize=auto;html=1;exitX=1;exitY=0.5;exitDx=0;exitDy=0;" edge="1" parent="1" source="QYstFRgwMJ7G4-ozk93F-17">
          <mxGeometry x="-0.0145" y="10" relative="1" as="geometry">
            <mxPoint x="532" y="413" as="targetPoint" />
            <mxPoint as="offset" />
            <mxPoint x="641" y="423" as="sourcePoint" />
          </mxGeometry>
        </mxCell>
        <mxCell id="QYstFRgwMJ7G4-ozk93F-21" value="" style="shape=umlDestroy;whiteSpace=wrap;html=1;strokeWidth=3;" vertex="1" parent="1">
          <mxGeometry x="710" y="398" width="30" height="30" as="geometry" />
        </mxCell>
        <mxCell id="QYstFRgwMJ7G4-ozk93F-22" value="erster" style="edgeStyle=orthogonalEdgeStyle;rounded=0;orthogonalLoop=1;jettySize=auto;html=1;exitX=0.5;exitY=1;exitDx=0;exitDy=0;entryX=0.5;entryY=0;entryDx=0;entryDy=0;" edge="1" parent="1" source="QYstFRgwMJ7G4-ozk93F-14" target="QYstFRgwMJ7G4-ozk93F-16">
          <mxGeometry x="-0.0385" y="21" relative="1" as="geometry">
            <mxPoint x="212" y="423" as="sourcePoint" />
            <mxPoint x="281" y="423" as="targetPoint" />
            <mxPoint as="offset" />
          </mxGeometry>
        </mxCell>
        <mxCell id="QYstFRgwMJ7G4-ozk93F-23" value="&lt;u&gt;dimitrij: Patient&lt;/u&gt;" style="html=1;fillColor=#dae8fc;strokeColor=#6c8ebf;" vertex="1" parent="1">
          <mxGeometry x="233" y="468" width="100" height="30" as="geometry" />
        </mxCell>
        <mxCell id="QYstFRgwMJ7G4-ozk93F-24" value="naechster" style="edgeStyle=orthogonalEdgeStyle;rounded=0;orthogonalLoop=1;jettySize=auto;html=1;exitX=1;exitY=0.5;exitDx=0;exitDy=0;entryX=0;entryY=0.5;entryDx=0;entryDy=0;fillColor=#dae8fc;strokeColor=#6c8ebf;fontColor=#7EA6E0;" edge="1" parent="1" source="QYstFRgwMJ7G4-ozk93F-23" target="QYstFRgwMJ7G4-ozk93F-17">
          <mxGeometry x="-0.0145" y="10" relative="1" as="geometry">
            <mxPoint x="448" y="355" as="targetPoint" />
            <mxPoint as="offset" />
            <mxPoint x="557" y="365" as="sourcePoint" />
            <Array as="points">
              <mxPoint x="342" y="483" />
              <mxPoint x="342" y="413" />
            </Array>
          </mxGeometry>
        </mxCell>
        <mxCell id="QYstFRgwMJ7G4-ozk93F-25" value="&lt;u&gt;verwaltung: Liste&lt;/u&gt;" style="html=1;" vertex="1" parent="1">
          <mxGeometry x="104" y="538" width="100" height="30" as="geometry" />
        </mxCell>
        <mxCell id="QYstFRgwMJ7G4-ozk93F-26" value="naechster" style="edgeStyle=orthogonalEdgeStyle;rounded=0;orthogonalLoop=1;jettySize=auto;html=1;exitX=1;exitY=0.5;exitDx=0;exitDy=0;entryX=0;entryY=0.5;entryDx=0;entryDy=0;" edge="1" parent="1" source="QYstFRgwMJ7G4-ozk93F-27" target="QYstFRgwMJ7G4-ozk93F-34">
          <mxGeometry x="-0.0145" y="10" relative="1" as="geometry">
            <mxPoint as="offset" />
            <Array as="points">
              <mxPoint x="265" y="635" />
              <mxPoint x="265" y="635" />
            </Array>
          </mxGeometry>
        </mxCell>
        <mxCell id="QYstFRgwMJ7G4-ozk93F-27" value="&lt;u&gt;ali: Patient&lt;/u&gt;" style="html=1;" vertex="1" parent="1">
          <mxGeometry x="104" y="620" width="100" height="30" as="geometry" />
        </mxCell>
        <mxCell id="QYstFRgwMJ7G4-ozk93F-28" value="&lt;u&gt;nadine: Patient&lt;/u&gt;" style="html=1;fillColor=#dae8fc;strokeColor=#6c8ebf;" vertex="1" parent="1">
          <mxGeometry x="272" y="694" width="100" height="30" as="geometry" />
        </mxCell>
        <mxCell id="QYstFRgwMJ7G4-ozk93F-29" value="naechster" style="edgeStyle=orthogonalEdgeStyle;rounded=0;orthogonalLoop=1;jettySize=auto;html=1;exitX=1;exitY=0.5;exitDx=0;exitDy=0;" edge="1" parent="1" source="QYstFRgwMJ7G4-ozk93F-30">
          <mxGeometry x="-0.0145" y="10" relative="1" as="geometry">
            <mxPoint x="714" y="635" as="targetPoint" />
            <mxPoint as="offset" />
          </mxGeometry>
        </mxCell>
        <mxCell id="QYstFRgwMJ7G4-ozk93F-30" value="&lt;u&gt;ebru: Patient&lt;/u&gt;" style="html=1;" vertex="1" parent="1">
          <mxGeometry x="446" y="620" width="100" height="30" as="geometry" />
        </mxCell>
        <mxCell id="QYstFRgwMJ7G4-ozk93F-31" value="naechster" style="edgeStyle=orthogonalEdgeStyle;rounded=0;orthogonalLoop=1;jettySize=auto;html=1;exitX=1;exitY=0.5;exitDx=0;exitDy=0;fillColor=#dae8fc;strokeColor=#6c8ebf;fontColor=#7EA6E0;" edge="1" parent="1" source="QYstFRgwMJ7G4-ozk93F-28">
          <mxGeometry x="-0.0145" y="10" relative="1" as="geometry">
            <mxPoint x="442" y="709" as="targetPoint" />
            <mxPoint as="offset" />
            <mxPoint x="551" y="719" as="sourcePoint" />
          </mxGeometry>
        </mxCell>
        <mxCell id="QYstFRgwMJ7G4-ozk93F-32" value="" style="shape=umlDestroy;whiteSpace=wrap;html=1;strokeWidth=3;" vertex="1" parent="1">
          <mxGeometry x="712" y="620" width="30" height="30" as="geometry" />
        </mxCell>
        <mxCell id="QYstFRgwMJ7G4-ozk93F-33" value="erster" style="edgeStyle=orthogonalEdgeStyle;rounded=0;orthogonalLoop=1;jettySize=auto;html=1;exitX=0.5;exitY=1;exitDx=0;exitDy=0;entryX=0.5;entryY=0;entryDx=0;entryDy=0;" edge="1" parent="1" source="QYstFRgwMJ7G4-ozk93F-25" target="QYstFRgwMJ7G4-ozk93F-27">
          <mxGeometry x="-0.0385" y="21" relative="1" as="geometry">
            <mxPoint x="214" y="645" as="sourcePoint" />
            <mxPoint x="283" y="645" as="targetPoint" />
            <mxPoint as="offset" />
          </mxGeometry>
        </mxCell>
        <mxCell id="QYstFRgwMJ7G4-ozk93F-34" value="&lt;u&gt;dimitrij: Patient&lt;/u&gt;" style="html=1;" vertex="1" parent="1">
          <mxGeometry x="272" y="620" width="100" height="30" as="geometry" />
        </mxCell>
        <mxCell id="QYstFRgwMJ7G4-ozk93F-35" value="naechster" style="edgeStyle=orthogonalEdgeStyle;rounded=0;orthogonalLoop=1;jettySize=auto;html=1;exitX=1;exitY=0.5;exitDx=0;exitDy=0;fillColor=#dae8fc;strokeColor=#6c8ebf;fontColor=#7EA6E0;entryX=0;entryY=0.5;entryDx=0;entryDy=0;" edge="1" parent="1" source="QYstFRgwMJ7G4-ozk93F-34" target="QYstFRgwMJ7G4-ozk93F-30">
          <mxGeometry x="-0.0145" y="10" relative="1" as="geometry">
            <mxPoint x="436" y="710" as="targetPoint" />
            <mxPoint as="offset" />
            <mxPoint x="559" y="587" as="sourcePoint" />
            <Array as="points">
              <mxPoint x="429" y="635" />
              <mxPoint x="429" y="635" />
            </Array>
          </mxGeometry>
        </mxCell>
        <mxCell id="QYstFRgwMJ7G4-ozk93F-36" value="" style="shape=umlDestroy;whiteSpace=wrap;html=1;strokeWidth=3;" vertex="1" parent="1">
          <mxGeometry x="445" y="694" width="30" height="30" as="geometry" />
        </mxCell>
      </root>
    </mxGraphModel>
  </diagram>
  <diagram id="Vk__CQFy7uHSeEf9jZk4" name="Seite-2">
    <mxGraphModel dx="794" dy="509" grid="0" gridSize="10" guides="1" tooltips="1" connect="1" arrows="1" fold="1" page="1" pageScale="1" pageWidth="827" pageHeight="1169" math="0" shadow="0">
      <root>
        <mxCell id="0" />
        <mxCell id="1" parent="0" />
        <mxCell id="4ZwaoGF-T5AcPH0fOjvX-1" style="edgeStyle=orthogonalEdgeStyle;rounded=0;orthogonalLoop=1;jettySize=auto;html=1;exitX=1;exitY=0.5;exitDx=0;exitDy=0;entryX=0;entryY=0.5;entryDx=0;entryDy=0;endArrow=none;endFill=0;" parent="1" source="Xz0bcqXixso4zqL1cgNv-5" target="Xz0bcqXixso4zqL1cgNv-6" edge="1">
          <mxGeometry relative="1" as="geometry" />
        </mxCell>
        <mxCell id="4ZwaoGF-T5AcPH0fOjvX-2" value="hat als Ersten &amp;gt;" style="edgeLabel;html=1;align=center;verticalAlign=middle;resizable=0;points=[];" parent="4ZwaoGF-T5AcPH0fOjvX-1" vertex="1" connectable="0">
          <mxGeometry x="-0.2826" y="1" relative="1" as="geometry">
            <mxPoint x="19" y="-10" as="offset" />
          </mxGeometry>
        </mxCell>
        <mxCell id="Xz0bcqXixso4zqL1cgNv-5" value="&lt;p style=&quot;margin: 0px ; margin-top: 4px ; text-align: center&quot;&gt;&lt;b&gt;Liste&lt;/b&gt;&lt;br&gt;&lt;/p&gt;&lt;hr size=&quot;1&quot;&gt;&lt;p style=&quot;margin: 0px ; margin-left: 4px&quot;&gt;- erster: Patient&lt;/p&gt;&lt;hr size=&quot;1&quot;&gt;&lt;p style=&quot;margin: 0px ; margin-left: 4px&quot;&gt;+ &lt;u&gt;Liste&lt;/u&gt;()&lt;/p&gt;&amp;nbsp;+ hintenAnfuegen(patient: Patient): void&lt;p style=&quot;margin: 0px ; margin-left: 4px&quot;&gt;+ vorneEntfernen(): Patient &lt;br&gt;&lt;/p&gt;" style="verticalAlign=top;align=left;overflow=fill;fontSize=12;fontFamily=Helvetica;html=1;" parent="1" vertex="1">
          <mxGeometry x="79" y="133" width="222" height="121" as="geometry" />
        </mxCell>
        <mxCell id="4ZwaoGF-T5AcPH0fOjvX-3" style="edgeStyle=orthogonalEdgeStyle;rounded=0;orthogonalLoop=1;jettySize=auto;html=1;exitX=1;exitY=0.5;exitDx=0;exitDy=0;entryX=0.5;entryY=0;entryDx=0;entryDy=0;endArrow=none;endFill=0;" parent="1" source="Xz0bcqXixso4zqL1cgNv-6" target="Xz0bcqXixso4zqL1cgNv-6" edge="1">
          <mxGeometry relative="1" as="geometry">
            <mxPoint x="686" y="60" as="targetPoint" />
            <Array as="points">
              <mxPoint x="672" y="194" />
              <mxPoint x="672" y="101" />
              <mxPoint x="541" y="101" />
            </Array>
          </mxGeometry>
        </mxCell>
        <mxCell id="4ZwaoGF-T5AcPH0fOjvX-4" value="&amp;lt; hat als Nachfolger" style="edgeLabel;html=1;align=center;verticalAlign=middle;resizable=0;points=[];" parent="4ZwaoGF-T5AcPH0fOjvX-3" vertex="1" connectable="0">
          <mxGeometry x="0.1216" y="1" relative="1" as="geometry">
            <mxPoint x="-20" y="-13" as="offset" />
          </mxGeometry>
        </mxCell>
        <mxCell id="Xz0bcqXixso4zqL1cgNv-6" value="&lt;p style=&quot;margin: 0px ; margin-top: 4px ; text-align: center&quot;&gt;&lt;b&gt;Patient&lt;/b&gt;&lt;br&gt;&lt;/p&gt;&lt;hr size=&quot;1&quot;&gt;&lt;p style=&quot;margin: 0px ; margin-left: 4px&quot;&gt;- name: String&lt;br&gt;&lt;/p&gt;&lt;p style=&quot;margin: 0px ; margin-left: 4px&quot;&gt;- naechster: Patient&lt;/p&gt;&lt;hr size=&quot;1&quot;&gt;&lt;p style=&quot;margin: 0px ; margin-left: 4px&quot;&gt;+ &lt;u&gt;Patient&lt;/u&gt;(name: String)&lt;/p&gt;&lt;p style=&quot;margin: 0px ; margin-left: 4px&quot;&gt;+ hintenAnfuegen(patient: Patient): void&lt;br&gt;&lt;/p&gt;&lt;p style=&quot;margin: 0px ; margin-left: 4px&quot;&gt;&lt;br&gt;&lt;/p&gt;&amp;nbsp;" style="verticalAlign=top;align=left;overflow=fill;fontSize=12;fontFamily=Helvetica;html=1;" parent="1" vertex="1">
          <mxGeometry x="430" y="133" width="222" height="121" as="geometry" />
        </mxCell>
        <mxCell id="4ZwaoGF-T5AcPH0fOjvX-5" value="1" style="text;html=1;align=center;verticalAlign=middle;whiteSpace=wrap;rounded=0;" parent="1" vertex="1">
          <mxGeometry x="301" y="195" width="18" height="20" as="geometry" />
        </mxCell>
        <mxCell id="4ZwaoGF-T5AcPH0fOjvX-6" value="0,1" style="text;html=1;align=center;verticalAlign=middle;whiteSpace=wrap;rounded=0;" parent="1" vertex="1">
          <mxGeometry x="412" y="194" width="18" height="20" as="geometry" />
        </mxCell>
        <mxCell id="4ZwaoGF-T5AcPH0fOjvX-8" value="0,1" style="text;html=1;align=center;verticalAlign=middle;whiteSpace=wrap;rounded=0;" parent="1" vertex="1">
          <mxGeometry x="542" y="113" width="18" height="20" as="geometry" />
        </mxCell>
        <mxCell id="4ZwaoGF-T5AcPH0fOjvX-9" value="1" style="text;html=1;align=center;verticalAlign=middle;whiteSpace=wrap;rounded=0;" parent="1" vertex="1">
          <mxGeometry x="652" y="194" width="18" height="20" as="geometry" />
        </mxCell>
        <mxCell id="2IBaVXQYuofXQAlrubtz-1" style="edgeStyle=orthogonalEdgeStyle;rounded=0;orthogonalLoop=1;jettySize=auto;html=1;exitX=1;exitY=0.5;exitDx=0;exitDy=0;entryX=0;entryY=0.5;entryDx=0;entryDy=0;endArrow=none;endFill=0;" parent="1" source="2IBaVXQYuofXQAlrubtz-3" target="2IBaVXQYuofXQAlrubtz-6" edge="1">
          <mxGeometry relative="1" as="geometry" />
        </mxCell>
        <mxCell id="2IBaVXQYuofXQAlrubtz-2" value="hat als Ersten &amp;gt;" style="edgeLabel;html=1;align=center;verticalAlign=middle;resizable=0;points=[];" parent="2IBaVXQYuofXQAlrubtz-1" vertex="1" connectable="0">
          <mxGeometry x="-0.2826" y="1" relative="1" as="geometry">
            <mxPoint x="19" y="-10" as="offset" />
          </mxGeometry>
        </mxCell>
        <mxCell id="2IBaVXQYuofXQAlrubtz-3" value="&lt;p style=&quot;margin: 0px ; margin-top: 4px ; text-align: center&quot;&gt;&lt;b&gt;Bestellung&lt;/b&gt;&lt;br&gt;&lt;/p&gt;&lt;hr size=&quot;1&quot;&gt;&lt;p style=&quot;margin: 0px ; margin-left: 4px&quot;&gt;- erster: Artikel&lt;/p&gt;&lt;hr size=&quot;1&quot;&gt;" style="verticalAlign=top;align=left;overflow=fill;fontSize=12;fontFamily=Helvetica;html=1;" parent="1" vertex="1">
          <mxGeometry x="81" y="341.5" width="222" height="62" as="geometry" />
        </mxCell>
        <mxCell id="2IBaVXQYuofXQAlrubtz-4" style="edgeStyle=orthogonalEdgeStyle;rounded=0;orthogonalLoop=1;jettySize=auto;html=1;exitX=1;exitY=0.5;exitDx=0;exitDy=0;entryX=0.5;entryY=0;entryDx=0;entryDy=0;endArrow=none;endFill=0;" parent="1" source="2IBaVXQYuofXQAlrubtz-6" target="2IBaVXQYuofXQAlrubtz-6" edge="1">
          <mxGeometry relative="1" as="geometry">
            <mxPoint x="688" y="255" as="targetPoint" />
            <Array as="points">
              <mxPoint x="674" y="389" />
              <mxPoint x="674" y="296" />
              <mxPoint x="543" y="296" />
            </Array>
          </mxGeometry>
        </mxCell>
        <mxCell id="2IBaVXQYuofXQAlrubtz-5" value="&amp;lt; hat als Nachfolger" style="edgeLabel;html=1;align=center;verticalAlign=middle;resizable=0;points=[];" parent="2IBaVXQYuofXQAlrubtz-4" vertex="1" connectable="0">
          <mxGeometry x="0.1216" y="1" relative="1" as="geometry">
            <mxPoint x="-20" y="-13" as="offset" />
          </mxGeometry>
        </mxCell>
        <mxCell id="2IBaVXQYuofXQAlrubtz-6" value="&lt;p style=&quot;margin: 0px ; margin-top: 4px ; text-align: center&quot;&gt;&lt;b&gt;Artikel&lt;/b&gt;&lt;br&gt;&lt;/p&gt;&lt;hr size=&quot;1&quot;&gt;&lt;p style=&quot;margin: 0px ; margin-left: 4px&quot;&gt;- artikelnummer: int&lt;br&gt;&lt;/p&gt;&lt;p style=&quot;margin: 0px ; margin-left: 4px&quot;&gt;- naechster: Artikel&lt;/p&gt;&lt;p style=&quot;margin: 0px ; margin-left: 4px&quot;&gt;- preis: double&lt;br&gt;&lt;/p&gt;&lt;hr size=&quot;1&quot;&gt;&lt;br&gt;&amp;nbsp;" style="verticalAlign=top;align=left;overflow=fill;fontSize=12;fontFamily=Helvetica;html=1;" parent="1" vertex="1">
          <mxGeometry x="432" y="328" width="222" height="89" as="geometry" />
        </mxCell>
        <mxCell id="2IBaVXQYuofXQAlrubtz-7" value="1" style="text;html=1;align=center;verticalAlign=middle;whiteSpace=wrap;rounded=0;" parent="1" vertex="1">
          <mxGeometry x="303" y="390" width="18" height="20" as="geometry" />
        </mxCell>
        <mxCell id="2IBaVXQYuofXQAlrubtz-8" value="0,1" style="text;html=1;align=center;verticalAlign=middle;whiteSpace=wrap;rounded=0;" parent="1" vertex="1">
          <mxGeometry x="414" y="389" width="18" height="20" as="geometry" />
        </mxCell>
        <mxCell id="2IBaVXQYuofXQAlrubtz-9" value="0,1" style="text;html=1;align=center;verticalAlign=middle;whiteSpace=wrap;rounded=0;" parent="1" vertex="1">
          <mxGeometry x="544" y="308" width="18" height="20" as="geometry" />
        </mxCell>
        <mxCell id="2IBaVXQYuofXQAlrubtz-10" value="1" style="text;html=1;align=center;verticalAlign=middle;whiteSpace=wrap;rounded=0;" parent="1" vertex="1">
          <mxGeometry x="654" y="389" width="18" height="20" as="geometry" />
        </mxCell>
      </root>
    </mxGraphModel>
  </diagram>
  <diagram id="prwxbOUMvSzjIDY4e73D" name="Seite-3">
    <mxGraphModel dx="1133" dy="717" grid="0" gridSize="10" guides="1" tooltips="1" connect="1" arrows="1" fold="1" page="1" pageScale="1" pageWidth="827" pageHeight="1169" math="0" shadow="0">
      <root>
        <mxCell id="0" />
        <mxCell id="1" parent="0" />
        <mxCell id="s36xdrnLbLojr9IYpXyV-9" value="Datenelement" style="swimlane;fontStyle=1;align=center;verticalAlign=top;childLayout=stackLayout;horizontal=1;startSize=26.17037116156684;horizontalStack=0;resizeParent=1;resizeParentMax=0;resizeLast=0;collapsible=0;marginBottom=0;" vertex="1" parent="1">
          <mxGeometry x="41" y="568" width="319" height="112.17037116156683" as="geometry" />
        </mxCell>
        <mxCell id="s36xdrnLbLojr9IYpXyV-10" style="line;strokeWidth=1;fillColor=none;align=left;verticalAlign=middle;spacingTop=-1;spacingLeft=3;spacingRight=3;rotatable=0;labelPosition=right;points=[];portConstraint=eastwest;strokeColor=inherit;" vertex="1" parent="s36xdrnLbLojr9IYpXyV-9">
          <mxGeometry y="26.17037116156684" width="319" height="8" as="geometry" />
        </mxCell>
        <mxCell id="s36xdrnLbLojr9IYpXyV-11" value="+String gibInformation()" style="text;strokeColor=none;fillColor=none;align=left;verticalAlign=top;spacingLeft=4;spacingRight=4;overflow=hidden;rotatable=0;points=[[0,0.5],[1,0.5]];portConstraint=eastwest;" vertex="1" parent="s36xdrnLbLojr9IYpXyV-9">
          <mxGeometry y="34.17037116156684" width="319" height="26" as="geometry" />
        </mxCell>
        <mxCell id="s36xdrnLbLojr9IYpXyV-12" value="+boolean vergleiche(String kriterium)" style="text;strokeColor=none;fillColor=none;align=left;verticalAlign=top;spacingLeft=4;spacingRight=4;overflow=hidden;rotatable=0;points=[[0,0.5],[1,0.5]];portConstraint=eastwest;" vertex="1" parent="s36xdrnLbLojr9IYpXyV-9">
          <mxGeometry y="60.17037116156684" width="319" height="26" as="geometry" />
        </mxCell>
        <mxCell id="s36xdrnLbLojr9IYpXyV-13" value="+int vergleicheMit(Datenelement anderes)" style="text;strokeColor=none;fillColor=none;align=left;verticalAlign=top;spacingLeft=4;spacingRight=4;overflow=hidden;rotatable=0;points=[[0,0.5],[1,0.5]];portConstraint=eastwest;" vertex="1" parent="s36xdrnLbLojr9IYpXyV-9">
          <mxGeometry y="86.17037116156683" width="319" height="26" as="geometry" />
        </mxCell>
        <mxCell id="s36xdrnLbLojr9IYpXyV-14" value="Patient" style="swimlane;fontStyle=1;align=center;verticalAlign=top;childLayout=stackLayout;horizontal=1;startSize=25.389999389648438;horizontalStack=0;resizeParent=1;resizeParentMax=0;resizeLast=0;collapsible=0;marginBottom=0;" vertex="1" parent="1">
          <mxGeometry x="41" y="743" width="319" height="258.38999938964844" as="geometry" />
        </mxCell>
        <mxCell id="s36xdrnLbLojr9IYpXyV-15" value="- String name" style="text;strokeColor=none;fillColor=none;align=left;verticalAlign=top;spacingLeft=4;spacingRight=4;overflow=hidden;rotatable=0;points=[[0,0.5],[1,0.5]];portConstraint=eastwest;" vertex="1" parent="s36xdrnLbLojr9IYpXyV-14">
          <mxGeometry y="25.389999389648438" width="319" height="25" as="geometry" />
        </mxCell>
        <mxCell id="s36xdrnLbLojr9IYpXyV-16" value="- String krankheit" style="text;strokeColor=none;fillColor=none;align=left;verticalAlign=top;spacingLeft=4;spacingRight=4;overflow=hidden;rotatable=0;points=[[0,0.5],[1,0.5]];portConstraint=eastwest;" vertex="1" parent="s36xdrnLbLojr9IYpXyV-14">
          <mxGeometry y="50.38999938964844" width="319" height="25" as="geometry" />
        </mxCell>
        <mxCell id="s36xdrnLbLojr9IYpXyV-17" style="line;strokeWidth=1;fillColor=none;align=left;verticalAlign=middle;spacingTop=-1;spacingLeft=3;spacingRight=3;rotatable=0;labelPosition=right;points=[];portConstraint=eastwest;strokeColor=inherit;" vertex="1" parent="s36xdrnLbLojr9IYpXyV-14">
          <mxGeometry y="75.38999938964844" width="319" height="8" as="geometry" />
        </mxCell>
        <mxCell id="s36xdrnLbLojr9IYpXyV-18" value="+String gibInformation()" style="text;strokeColor=none;fillColor=none;align=left;verticalAlign=top;spacingLeft=4;spacingRight=4;overflow=hidden;rotatable=0;points=[[0,0.5],[1,0.5]];portConstraint=eastwest;" vertex="1" parent="s36xdrnLbLojr9IYpXyV-14">
          <mxGeometry y="83.38999938964844" width="319" height="25" as="geometry" />
        </mxCell>
        <mxCell id="s36xdrnLbLojr9IYpXyV-19" value="+String getName()" style="text;strokeColor=none;fillColor=none;align=left;verticalAlign=top;spacingLeft=4;spacingRight=4;overflow=hidden;rotatable=0;points=[[0,0.5],[1,0.5]];portConstraint=eastwest;" vertex="1" parent="s36xdrnLbLojr9IYpXyV-14">
          <mxGeometry y="108.38999938964844" width="319" height="25" as="geometry" />
        </mxCell>
        <mxCell id="s36xdrnLbLojr9IYpXyV-20" value="+void setName(String name)" style="text;strokeColor=none;fillColor=none;align=left;verticalAlign=top;spacingLeft=4;spacingRight=4;overflow=hidden;rotatable=0;points=[[0,0.5],[1,0.5]];portConstraint=eastwest;" vertex="1" parent="s36xdrnLbLojr9IYpXyV-14">
          <mxGeometry y="133.38999938964844" width="319" height="25" as="geometry" />
        </mxCell>
        <mxCell id="s36xdrnLbLojr9IYpXyV-21" value="+String getKrankheit()" style="text;strokeColor=none;fillColor=none;align=left;verticalAlign=top;spacingLeft=4;spacingRight=4;overflow=hidden;rotatable=0;points=[[0,0.5],[1,0.5]];portConstraint=eastwest;" vertex="1" parent="s36xdrnLbLojr9IYpXyV-14">
          <mxGeometry y="158.38999938964844" width="319" height="25" as="geometry" />
        </mxCell>
        <mxCell id="s36xdrnLbLojr9IYpXyV-22" value="+void setKrankheit(String krankheit)" style="text;strokeColor=none;fillColor=none;align=left;verticalAlign=top;spacingLeft=4;spacingRight=4;overflow=hidden;rotatable=0;points=[[0,0.5],[1,0.5]];portConstraint=eastwest;" vertex="1" parent="s36xdrnLbLojr9IYpXyV-14">
          <mxGeometry y="183.38999938964844" width="319" height="25" as="geometry" />
        </mxCell>
        <mxCell id="s36xdrnLbLojr9IYpXyV-23" value="+boolean vergleiche(String kriterium)" style="text;strokeColor=none;fillColor=none;align=left;verticalAlign=top;spacingLeft=4;spacingRight=4;overflow=hidden;rotatable=0;points=[[0,0.5],[1,0.5]];portConstraint=eastwest;" vertex="1" parent="s36xdrnLbLojr9IYpXyV-14">
          <mxGeometry y="208.38999938964844" width="319" height="25" as="geometry" />
        </mxCell>
        <mxCell id="s36xdrnLbLojr9IYpXyV-24" value="+int vergleicheMit(Datenelement anderes)" style="text;strokeColor=none;fillColor=none;align=left;verticalAlign=top;spacingLeft=4;spacingRight=4;overflow=hidden;rotatable=0;points=[[0,0.5],[1,0.5]];portConstraint=eastwest;" vertex="1" parent="s36xdrnLbLojr9IYpXyV-14">
          <mxGeometry y="233.38999938964844" width="319" height="25" as="geometry" />
        </mxCell>
        <mxCell id="s36xdrnLbLojr9IYpXyV-25" value="Knoten" style="swimlane;fontStyle=1;align=center;verticalAlign=top;childLayout=stackLayout;horizontal=1;startSize=26.542857578822545;horizontalStack=0;resizeParent=1;resizeParentMax=0;resizeLast=0;collapsible=0;marginBottom=0;" vertex="1" parent="1">
          <mxGeometry x="56" y="305" width="288" height="196.54285757882255" as="geometry" />
        </mxCell>
        <mxCell id="s36xdrnLbLojr9IYpXyV-26" value="- Datenelement inhalt" style="text;strokeColor=none;fillColor=none;align=left;verticalAlign=top;spacingLeft=4;spacingRight=4;overflow=hidden;rotatable=0;points=[[0,0.5],[1,0.5]];portConstraint=eastwest;" vertex="1" parent="s36xdrnLbLojr9IYpXyV-25">
          <mxGeometry y="26.542857578822545" width="288" height="27" as="geometry" />
        </mxCell>
        <mxCell id="s36xdrnLbLojr9IYpXyV-27" value="- Knoten naechster" style="text;strokeColor=none;fillColor=none;align=left;verticalAlign=top;spacingLeft=4;spacingRight=4;overflow=hidden;rotatable=0;points=[[0,0.5],[1,0.5]];portConstraint=eastwest;" vertex="1" parent="s36xdrnLbLojr9IYpXyV-25">
          <mxGeometry y="53.54285757882255" width="288" height="27" as="geometry" />
        </mxCell>
        <mxCell id="s36xdrnLbLojr9IYpXyV-28" style="line;strokeWidth=1;fillColor=none;align=left;verticalAlign=middle;spacingTop=-1;spacingLeft=3;spacingRight=3;rotatable=0;labelPosition=right;points=[];portConstraint=eastwest;strokeColor=inherit;" vertex="1" parent="s36xdrnLbLojr9IYpXyV-25">
          <mxGeometry y="80.54285757882255" width="288" height="8" as="geometry" />
        </mxCell>
        <mxCell id="s36xdrnLbLojr9IYpXyV-29" value="+Knoten getNaechster()" style="text;strokeColor=none;fillColor=none;align=left;verticalAlign=top;spacingLeft=4;spacingRight=4;overflow=hidden;rotatable=0;points=[[0,0.5],[1,0.5]];portConstraint=eastwest;" vertex="1" parent="s36xdrnLbLojr9IYpXyV-25">
          <mxGeometry y="88.54285757882255" width="288" height="27" as="geometry" />
        </mxCell>
        <mxCell id="s36xdrnLbLojr9IYpXyV-30" value="+void setNaechster(Knoten naechster)" style="text;strokeColor=none;fillColor=none;align=left;verticalAlign=top;spacingLeft=4;spacingRight=4;overflow=hidden;rotatable=0;points=[[0,0.5],[1,0.5]];portConstraint=eastwest;" vertex="1" parent="s36xdrnLbLojr9IYpXyV-25">
          <mxGeometry y="115.54285757882255" width="288" height="27" as="geometry" />
        </mxCell>
        <mxCell id="s36xdrnLbLojr9IYpXyV-31" value="+Datenelement getInhalt()" style="text;strokeColor=none;fillColor=none;align=left;verticalAlign=top;spacingLeft=4;spacingRight=4;overflow=hidden;rotatable=0;points=[[0,0.5],[1,0.5]];portConstraint=eastwest;" vertex="1" parent="s36xdrnLbLojr9IYpXyV-25">
          <mxGeometry y="142.54285757882255" width="288" height="27" as="geometry" />
        </mxCell>
        <mxCell id="s36xdrnLbLojr9IYpXyV-32" value="+void setInhalt(Datenelement inhalt)" style="text;strokeColor=none;fillColor=none;align=left;verticalAlign=top;spacingLeft=4;spacingRight=4;overflow=hidden;rotatable=0;points=[[0,0.5],[1,0.5]];portConstraint=eastwest;" vertex="1" parent="s36xdrnLbLojr9IYpXyV-25">
          <mxGeometry y="169.54285757882255" width="288" height="27" as="geometry" />
        </mxCell>
        <mxCell id="s36xdrnLbLojr9IYpXyV-33" value="Liste" style="swimlane;fontStyle=1;align=center;verticalAlign=top;childLayout=stackLayout;horizontal=1;startSize=26.066667556762695;horizontalStack=0;resizeParent=1;resizeParentMax=0;resizeLast=0;collapsible=0;marginBottom=0;" vertex="1" parent="1">
          <mxGeometry x="20" y="20" width="360" height="216.0666675567627" as="geometry" />
        </mxCell>
        <mxCell id="s36xdrnLbLojr9IYpXyV-34" value="- Knoten erster" style="text;strokeColor=none;fillColor=none;align=left;verticalAlign=top;spacingLeft=4;spacingRight=4;overflow=hidden;rotatable=0;points=[[0,0.5],[1,0.5]];portConstraint=eastwest;" vertex="1" parent="s36xdrnLbLojr9IYpXyV-33">
          <mxGeometry y="26.066667556762695" width="360" height="26" as="geometry" />
        </mxCell>
        <mxCell id="s36xdrnLbLojr9IYpXyV-35" style="line;strokeWidth=1;fillColor=none;align=left;verticalAlign=middle;spacingTop=-1;spacingLeft=3;spacingRight=3;rotatable=0;labelPosition=right;points=[];portConstraint=eastwest;strokeColor=inherit;" vertex="1" parent="s36xdrnLbLojr9IYpXyV-33">
          <mxGeometry y="52.066667556762695" width="360" height="8" as="geometry" />
        </mxCell>
        <mxCell id="s36xdrnLbLojr9IYpXyV-36" value="+void hintenAnfuegen(Datenelement element)" style="text;strokeColor=none;fillColor=none;align=left;verticalAlign=top;spacingLeft=4;spacingRight=4;overflow=hidden;rotatable=0;points=[[0,0.5],[1,0.5]];portConstraint=eastwest;" vertex="1" parent="s36xdrnLbLojr9IYpXyV-33">
          <mxGeometry y="60.066667556762695" width="360" height="26" as="geometry" />
        </mxCell>
        <mxCell id="s36xdrnLbLojr9IYpXyV-37" value="+Datenelement vorneEntfernen()" style="text;strokeColor=none;fillColor=none;align=left;verticalAlign=top;spacingLeft=4;spacingRight=4;overflow=hidden;rotatable=0;points=[[0,0.5],[1,0.5]];portConstraint=eastwest;" vertex="1" parent="s36xdrnLbLojr9IYpXyV-33">
          <mxGeometry y="86.0666675567627" width="360" height="26" as="geometry" />
        </mxCell>
        <mxCell id="s36xdrnLbLojr9IYpXyV-38" value="+void druckeListe()" style="text;strokeColor=none;fillColor=none;align=left;verticalAlign=top;spacingLeft=4;spacingRight=4;overflow=hidden;rotatable=0;points=[[0,0.5],[1,0.5]];portConstraint=eastwest;" vertex="1" parent="s36xdrnLbLojr9IYpXyV-33">
          <mxGeometry y="112.0666675567627" width="360" height="26" as="geometry" />
        </mxCell>
        <mxCell id="s36xdrnLbLojr9IYpXyV-39" value="+int gibLaenge()" style="text;strokeColor=none;fillColor=none;align=left;verticalAlign=top;spacingLeft=4;spacingRight=4;overflow=hidden;rotatable=0;points=[[0,0.5],[1,0.5]];portConstraint=eastwest;" vertex="1" parent="s36xdrnLbLojr9IYpXyV-33">
          <mxGeometry y="138.0666675567627" width="360" height="26" as="geometry" />
        </mxCell>
        <mxCell id="s36xdrnLbLojr9IYpXyV-40" value="+Datenelement suche(String kriterium)" style="text;strokeColor=none;fillColor=none;align=left;verticalAlign=top;spacingLeft=4;spacingRight=4;overflow=hidden;rotatable=0;points=[[0,0.5],[1,0.5]];portConstraint=eastwest;" vertex="1" parent="s36xdrnLbLojr9IYpXyV-33">
          <mxGeometry y="164.0666675567627" width="360" height="26" as="geometry" />
        </mxCell>
        <mxCell id="s36xdrnLbLojr9IYpXyV-41" value="+void sortiertEinfuegen(Datenelement element)" style="text;strokeColor=none;fillColor=none;align=left;verticalAlign=top;spacingLeft=4;spacingRight=4;overflow=hidden;rotatable=0;points=[[0,0.5],[1,0.5]];portConstraint=eastwest;" vertex="1" parent="s36xdrnLbLojr9IYpXyV-33">
          <mxGeometry y="190.0666675567627" width="360" height="26" as="geometry" />
        </mxCell>
        <mxCell id="s36xdrnLbLojr9IYpXyV-42" value="" style="curved=1;dashed=1;startArrow=block;startSize=16;startFill=0;endArrow=none;exitX=0.5;exitY=1;entryX=0.5;entryY=0;rounded=0;" edge="1" parent="1" source="s36xdrnLbLojr9IYpXyV-9" target="s36xdrnLbLojr9IYpXyV-14">
          <mxGeometry relative="1" as="geometry">
            <Array as="points" />
          </mxGeometry>
        </mxCell>
        <mxCell id="s36xdrnLbLojr9IYpXyV-43" value="contains" style="curved=1;startArrow=diamondThin;startSize=14;startFill=0;endArrow=none;exitX=0.5;exitY=1;entryX=0.5;entryY=0;rounded=0;" edge="1" parent="1" source="s36xdrnLbLojr9IYpXyV-33" target="s36xdrnLbLojr9IYpXyV-25">
          <mxGeometry relative="1" as="geometry">
            <Array as="points" />
          </mxGeometry>
        </mxCell>
        <mxCell id="s36xdrnLbLojr9IYpXyV-44" value="holds" style="curved=1;startArrow=none;endArrow=open;endSize=12;exitX=0.5;exitY=1;entryX=0.5;entryY=0;rounded=0;" edge="1" parent="1" source="s36xdrnLbLojr9IYpXyV-25" target="s36xdrnLbLojr9IYpXyV-9">
          <mxGeometry relative="1" as="geometry">
            <Array as="points" />
          </mxGeometry>
        </mxCell>
        <mxCell id="s36xdrnLbLojr9IYpXyV-45" value="next" style="curved=1;startArrow=none;endArrow=open;endSize=12;exitX=1;exitY=0.1;entryX=1;entryY=0.9;rounded=0;" edge="1" parent="1" source="s36xdrnLbLojr9IYpXyV-25" target="s36xdrnLbLojr9IYpXyV-25">
          <mxGeometry relative="1" as="geometry">
            <Array as="points">
              <mxPoint x="378" y="305" />
              <mxPoint x="386" y="305" />
              <mxPoint x="395" y="402" />
              <mxPoint x="386" y="499" />
              <mxPoint x="378" y="499" />
            </Array>
          </mxGeometry>
        </mxCell>
      </root>
    </mxGraphModel>
  </diagram>
  <diagram id="CQkTFXIpAascc0tk0h92" name="Seite-4">
    <mxGraphModel dx="794" dy="509" grid="0" gridSize="10" guides="1" tooltips="1" connect="1" arrows="1" fold="1" page="1" pageScale="1" pageWidth="827" pageHeight="1169" math="0" shadow="0">
      <root>
        <mxCell id="0" />
        <mxCell id="1" parent="0" />
        <mxCell id="O2zQOu6iA-xowzXAVHLN-1" value="&lt;b&gt;Liste&lt;/b&gt;" style="html=1;whiteSpace=wrap;" vertex="1" parent="1">
          <mxGeometry x="217" y="166" width="90" height="30" as="geometry" />
        </mxCell>
        <mxCell id="C8J86b_uKNEOua-QDZGm-1" value="&lt;b&gt;Knoten&lt;/b&gt;" style="html=1;whiteSpace=wrap;" vertex="1" parent="1">
          <mxGeometry x="416" y="166" width="90" height="30" as="geometry" />
        </mxCell>
        <mxCell id="C8J86b_uKNEOua-QDZGm-2" value="&lt;b&gt;Patient&lt;/b&gt;" style="html=1;whiteSpace=wrap;" vertex="1" parent="1">
          <mxGeometry x="416" y="273" width="90" height="30" as="geometry" />
        </mxCell>
      </root>
    </mxGraphModel>
  </diagram>
  <diagram id="tQWUvqzB2K3o69OK46Fc" name="Seite-5">
    <mxGraphModel dx="794" dy="509" grid="0" gridSize="10" guides="1" tooltips="1" connect="1" arrows="1" fold="1" page="1" pageScale="1" pageWidth="827" pageHeight="1169" math="0" shadow="0">
      <root>
        <mxCell id="0" />
        <mxCell id="1" parent="0" />
        <UserObject label="" plantUmlData="{&quot;data&quot;:&quot;@startuml\nskinparam handwritten false\n\nactor User\nparticipant \&quot;liste\&quot; as A\nparticipant \&quot;k1\&quot; as B\nparticipant \&quot;k2\&quot; as C\n\nUser -&gt; A: gibLaenge()\nactivate A\n\nA -&gt; B: gibLaenge()\nactivate B\n\nB -&gt; C: gibLaenge()\nactivate C\nC --&gt; B: 1\ndeactivate C\n\nB --&gt; A: 2\ndeactivate B\n\nA --&gt; User: 2\ndeactivate A\n\n@enduml\n&quot;,&quot;format&quot;:&quot;svg&quot;}" id="gMQhyQliXm4SEKdthbfi-1">
          <mxCell style="shape=image;noLabel=1;verticalAlign=top;aspect=fixed;imageAspect=0;image=data:image/svg+xml,PD94bWwgdmVyc2lvbj0iMS4wIiBlbmNvZGluZz0idXMtYXNjaWkiIHN0YW5kYWxvbmU9Im5vIj8+PHN2ZyB4bWxucz0iaHR0cDovL3d3dy53My5vcmcvMjAwMC9zdmciIHhtbG5zOnhsaW5rPSJodHRwOi8vd3d3LnczLm9yZy8xOTk5L3hsaW5rIiBjb250ZW50U3R5bGVUeXBlPSJ0ZXh0L2NzcyIgaGVpZ2h0PSIzNDZweCIgcHJlc2VydmVBc3BlY3RSYXRpbz0ibm9uZSIgc3R5bGU9IndpZHRoOjM0NnB4O2hlaWdodDozNDZweDtiYWNrZ3JvdW5kOiNGRkZGRkY7IiB2ZXJzaW9uPSIxLjEiIHZpZXdCb3g9IjAgMCAzNDYgMzQ2IiB3aWR0aD0iMzQ2cHgiIHpvb21BbmRQYW49Im1hZ25pZnkiPjxkZWZzLz48Zz48cmVjdCBmaWxsPSIjRkZGRkZGIiBoZWlnaHQ9IjEzOS41NzAzIiBzdHlsZT0ic3Ryb2tlOiMxODE4MTg7c3Ryb2tlLXdpZHRoOjEuMDsiIHdpZHRoPSIxMCIgeD0iMTE1IiB5PSIxMDkuODk4NCIvPjxyZWN0IGZpbGw9IiNGRkZGRkYiIGhlaWdodD0iODMuNzQyMiIgc3R5bGU9InN0cm9rZTojMTgxODE4O3N0cm9rZS13aWR0aDoxLjA7IiB3aWR0aD0iMTAiIHg9IjIxOCIgeT0iMTM3LjgxMjUiLz48cmVjdCBmaWxsPSIjRkZGRkZGIiBoZWlnaHQ9IjI3LjkxNDEiIHN0eWxlPSJzdHJva2U6IzE4MTgxODtzdHJva2Utd2lkdGg6MS4wOyIgd2lkdGg9IjEwIiB4PSIzMjEiIHk9IjE2NS43MjY2Ii8+PGxpbmUgc3R5bGU9InN0cm9rZTojMTgxODE4O3N0cm9rZS13aWR0aDowLjU7c3Ryb2tlLWRhc2hhcnJheTo1LjAsNS4wOyIgeDE9IjIyIiB4Mj0iMjIiIHkxPSI3OS45ODQ0IiB5Mj0iMjY3LjQ2ODgiLz48bGluZSBzdHlsZT0ic3Ryb2tlOiMxODE4MTg7c3Ryb2tlLXdpZHRoOjAuNTtzdHJva2UtZGFzaGFycmF5OjUuMCw1LjA7IiB4MT0iMTE5LjUiIHgyPSIxMTkuNSIgeTE9Ijc5Ljk4NDQiIHkyPSIyNjcuNDY4OCIvPjxsaW5lIHN0eWxlPSJzdHJva2U6IzE4MTgxODtzdHJva2Utd2lkdGg6MC41O3N0cm9rZS1kYXNoYXJyYXk6NS4wLDUuMDsiIHgxPSIyMjMiIHgyPSIyMjMiIHkxPSI3OS45ODQ0IiB5Mj0iMjY3LjQ2ODgiLz48bGluZSBzdHlsZT0ic3Ryb2tlOiMxODE4MTg7c3Ryb2tlLXdpZHRoOjAuNTtzdHJva2UtZGFzaGFycmF5OjUuMCw1LjA7IiB4MT0iMzI2IiB4Mj0iMzI2IiB5MT0iNzkuOTg0NCIgeTI9IjI2Ny40Njg4Ii8+PHRleHQgZmlsbD0iIzAwMDAwMCIgZm9udC1mYW1pbHk9InNhbnMtc2VyaWYiIGZvbnQtc2l6ZT0iMTQiIGxlbmd0aEFkanVzdD0ic3BhY2luZyIgdGV4dExlbmd0aD0iMjgiIHg9IjUiIHk9Ijc4LjIzNDQiPlVzZXI8L3RleHQ+PGVsbGlwc2UgY3g9IjIyIiBjeT0iMTMuNSIgZmlsbD0iI0UyRTJGMCIgcng9IjgiIHJ5PSI4IiBzdHlsZT0ic3Ryb2tlOiMxODE4MTg7c3Ryb2tlLXdpZHRoOjAuNTsiLz48cGF0aCBkPSJNMjIsMjEuNSBMMjIsNDguNSBNOSwyOS41IEwzNSwyOS41IE0yMiw0OC41IEw5LDYzLjUgTTIyLDQ4LjUgTDM1LDYzLjUgIiBmaWxsPSJub25lIiBzdHlsZT0ic3Ryb2tlOiMxODE4MTg7c3Ryb2tlLXdpZHRoOjAuNTsiLz48dGV4dCBmaWxsPSIjMDAwMDAwIiBmb250LWZhbWlseT0ic2Fucy1zZXJpZiIgZm9udC1zaXplPSIxNCIgbGVuZ3RoQWRqdXN0PSJzcGFjaW5nIiB0ZXh0TGVuZ3RoPSIyOCIgeD0iNSIgeT0iMjc5LjcwMzEiPlVzZXI8L3RleHQ+PGVsbGlwc2UgY3g9IjIyIiBjeT0iMjg5Ljk1MzEiIGZpbGw9IiNFMkUyRjAiIHJ4PSI4IiByeT0iOCIgc3R5bGU9InN0cm9rZTojMTgxODE4O3N0cm9rZS13aWR0aDowLjU7Ii8+PHBhdGggZD0iTTIyLDI5Ny45NTMxIEwyMiwzMjQuOTUzMSBNOSwzMDUuOTUzMSBMMzUsMzA1Ljk1MzEgTTIyLDMyNC45NTMxIEw5LDMzOS45NTMxIE0yMiwzMjQuOTUzMSBMMzUsMzM5Ljk1MzEgIiBmaWxsPSJub25lIiBzdHlsZT0ic3Ryb2tlOiMxODE4MTg7c3Ryb2tlLXdpZHRoOjAuNTsiLz48cmVjdCBmaWxsPSIjRTJFMkYwIiBoZWlnaHQ9IjI4Ljk4NDQiIHJ4PSIyLjUiIHJ5PSIyLjUiIHN0eWxlPSJzdHJva2U6IzE4MTgxODtzdHJva2Utd2lkdGg6MC41OyIgd2lkdGg9IjQ5IiB4PSI5NS41IiB5PSI1MCIvPjx0ZXh0IGZpbGw9IiMwMDAwMDAiIGZvbnQtZmFtaWx5PSJzYW5zLXNlcmlmIiBmb250LXNpemU9IjE0IiBsZW5ndGhBZGp1c3Q9InNwYWNpbmciIHRleHRMZW5ndGg9IjM1IiB4PSIxMDIuNSIgeT0iNzAuMjM0NCI+bGlzdGU8L3RleHQ+PHJlY3QgZmlsbD0iI0UyRTJGMCIgaGVpZ2h0PSIyOC45ODQ0IiByeD0iMi41IiByeT0iMi41IiBzdHlsZT0ic3Ryb2tlOiMxODE4MTg7c3Ryb2tlLXdpZHRoOjAuNTsiIHdpZHRoPSI0OSIgeD0iOTUuNSIgeT0iMjY2LjQ2ODgiLz48dGV4dCBmaWxsPSIjMDAwMDAwIiBmb250LWZhbWlseT0ic2Fucy1zZXJpZiIgZm9udC1zaXplPSIxNCIgbGVuZ3RoQWRqdXN0PSJzcGFjaW5nIiB0ZXh0TGVuZ3RoPSIzNSIgeD0iMTAyLjUiIHk9IjI4Ni43MDMxIj5saXN0ZTwvdGV4dD48cmVjdCBmaWxsPSIjRTJFMkYwIiBoZWlnaHQ9IjI4Ljk4NDQiIHJ4PSIyLjUiIHJ5PSIyLjUiIHN0eWxlPSJzdHJva2U6IzE4MTgxODtzdHJva2Utd2lkdGg6MC41OyIgd2lkdGg9IjI4IiB4PSIyMDkiIHk9IjUwIi8+PHRleHQgZmlsbD0iIzAwMDAwMCIgZm9udC1mYW1pbHk9InNhbnMtc2VyaWYiIGZvbnQtc2l6ZT0iMTQiIGxlbmd0aEFkanVzdD0ic3BhY2luZyIgdGV4dExlbmd0aD0iMTQiIHg9IjIxNiIgeT0iNzAuMjM0NCI+azE8L3RleHQ+PHJlY3QgZmlsbD0iI0UyRTJGMCIgaGVpZ2h0PSIyOC45ODQ0IiByeD0iMi41IiByeT0iMi41IiBzdHlsZT0ic3Ryb2tlOiMxODE4MTg7c3Ryb2tlLXdpZHRoOjAuNTsiIHdpZHRoPSIyOCIgeD0iMjA5IiB5PSIyNjYuNDY4OCIvPjx0ZXh0IGZpbGw9IiMwMDAwMDAiIGZvbnQtZmFtaWx5PSJzYW5zLXNlcmlmIiBmb250LXNpemU9IjE0IiBsZW5ndGhBZGp1c3Q9InNwYWNpbmciIHRleHRMZW5ndGg9IjE0IiB4PSIyMTYiIHk9IjI4Ni43MDMxIj5rMTwvdGV4dD48cmVjdCBmaWxsPSIjRTJFMkYwIiBoZWlnaHQ9IjI4Ljk4NDQiIHJ4PSIyLjUiIHJ5PSIyLjUiIHN0eWxlPSJzdHJva2U6IzE4MTgxODtzdHJva2Utd2lkdGg6MC41OyIgd2lkdGg9IjI4IiB4PSIzMTIiIHk9IjUwIi8+PHRleHQgZmlsbD0iIzAwMDAwMCIgZm9udC1mYW1pbHk9InNhbnMtc2VyaWYiIGZvbnQtc2l6ZT0iMTQiIGxlbmd0aEFkanVzdD0ic3BhY2luZyIgdGV4dExlbmd0aD0iMTQiIHg9IjMxOSIgeT0iNzAuMjM0NCI+azI8L3RleHQ+PHJlY3QgZmlsbD0iI0UyRTJGMCIgaGVpZ2h0PSIyOC45ODQ0IiByeD0iMi41IiByeT0iMi41IiBzdHlsZT0ic3Ryb2tlOiMxODE4MTg7c3Ryb2tlLXdpZHRoOjAuNTsiIHdpZHRoPSIyOCIgeD0iMzEyIiB5PSIyNjYuNDY4OCIvPjx0ZXh0IGZpbGw9IiMwMDAwMDAiIGZvbnQtZmFtaWx5PSJzYW5zLXNlcmlmIiBmb250LXNpemU9IjE0IiBsZW5ndGhBZGp1c3Q9InNwYWNpbmciIHRleHRMZW5ndGg9IjE0IiB4PSIzMTkiIHk9IjI4Ni43MDMxIj5rMjwvdGV4dD48cmVjdCBmaWxsPSIjRkZGRkZGIiBoZWlnaHQ9IjEzOS41NzAzIiBzdHlsZT0ic3Ryb2tlOiMxODE4MTg7c3Ryb2tlLXdpZHRoOjEuMDsiIHdpZHRoPSIxMCIgeD0iMTE1IiB5PSIxMDkuODk4NCIvPjxyZWN0IGZpbGw9IiNGRkZGRkYiIGhlaWdodD0iODMuNzQyMiIgc3R5bGU9InN0cm9rZTojMTgxODE4O3N0cm9rZS13aWR0aDoxLjA7IiB3aWR0aD0iMTAiIHg9IjIxOCIgeT0iMTM3LjgxMjUiLz48cmVjdCBmaWxsPSIjRkZGRkZGIiBoZWlnaHQ9IjI3LjkxNDEiIHN0eWxlPSJzdHJva2U6IzE4MTgxODtzdHJva2Utd2lkdGg6MS4wOyIgd2lkdGg9IjEwIiB4PSIzMjEiIHk9IjE2NS43MjY2Ii8+PHBvbHlnb24gZmlsbD0iIzE4MTgxOCIgcG9pbnRzPSIxMDMsMTA1Ljg5ODQsMTEzLDEwOS44OTg0LDEwMywxMTMuODk4NCwxMDcsMTA5Ljg5ODQiIHN0eWxlPSJzdHJva2U6IzE4MTgxODtzdHJva2Utd2lkdGg6MS4wOyIvPjxsaW5lIHN0eWxlPSJzdHJva2U6IzE4MTgxODtzdHJva2Utd2lkdGg6MS4wOyIgeDE9IjIyIiB4Mj0iMTA5IiB5MT0iMTA5Ljg5ODQiIHkyPSIxMDkuODk4NCIvPjx0ZXh0IGZpbGw9IiMwMDAwMDAiIGZvbnQtZmFtaWx5PSJzYW5zLXNlcmlmIiBmb250LXNpemU9IjEzIiBsZW5ndGhBZGp1c3Q9InNwYWNpbmciIHRleHRMZW5ndGg9Ijc0IiB4PSIyOSIgeT0iMTA2LjI3MzQiPmdpYkxhZW5nZSgpPC90ZXh0Pjxwb2x5Z29uIGZpbGw9IiMxODE4MTgiIHBvaW50cz0iMjA2LDEzMy44MTI1LDIxNiwxMzcuODEyNSwyMDYsMTQxLjgxMjUsMjEwLDEzNy44MTI1IiBzdHlsZT0ic3Ryb2tlOiMxODE4MTg7c3Ryb2tlLXdpZHRoOjEuMDsiLz48bGluZSBzdHlsZT0ic3Ryb2tlOiMxODE4MTg7c3Ryb2tlLXdpZHRoOjEuMDsiIHgxPSIxMjUiIHgyPSIyMTIiIHkxPSIxMzcuODEyNSIgeTI9IjEzNy44MTI1Ii8+PHRleHQgZmlsbD0iIzAwMDAwMCIgZm9udC1mYW1pbHk9InNhbnMtc2VyaWYiIGZvbnQtc2l6ZT0iMTMiIGxlbmd0aEFkanVzdD0ic3BhY2luZyIgdGV4dExlbmd0aD0iNzQiIHg9IjEzMiIgeT0iMTM0LjE4NzUiPmdpYkxhZW5nZSgpPC90ZXh0Pjxwb2x5Z29uIGZpbGw9IiMxODE4MTgiIHBvaW50cz0iMzA5LDE2MS43MjY2LDMxOSwxNjUuNzI2NiwzMDksMTY5LjcyNjYsMzEzLDE2NS43MjY2IiBzdHlsZT0ic3Ryb2tlOiMxODE4MTg7c3Ryb2tlLXdpZHRoOjEuMDsiLz48bGluZSBzdHlsZT0ic3Ryb2tlOiMxODE4MTg7c3Ryb2tlLXdpZHRoOjEuMDsiIHgxPSIyMjgiIHgyPSIzMTUiIHkxPSIxNjUuNzI2NiIgeTI9IjE2NS43MjY2Ii8+PHRleHQgZmlsbD0iIzAwMDAwMCIgZm9udC1mYW1pbHk9InNhbnMtc2VyaWYiIGZvbnQtc2l6ZT0iMTMiIGxlbmd0aEFkanVzdD0ic3BhY2luZyIgdGV4dExlbmd0aD0iNzQiIHg9IjIzNSIgeT0iMTYyLjEwMTYiPmdpYkxhZW5nZSgpPC90ZXh0Pjxwb2x5Z29uIGZpbGw9IiMxODE4MTgiIHBvaW50cz0iMjM5LDE4OS42NDA2LDIyOSwxOTMuNjQwNiwyMzksMTk3LjY0MDYsMjM1LDE5My42NDA2IiBzdHlsZT0ic3Ryb2tlOiMxODE4MTg7c3Ryb2tlLXdpZHRoOjEuMDsiLz48bGluZSBzdHlsZT0ic3Ryb2tlOiMxODE4MTg7c3Ryb2tlLXdpZHRoOjEuMDtzdHJva2UtZGFzaGFycmF5OjIuMCwyLjA7IiB4MT0iMjMzIiB4Mj0iMzI1IiB5MT0iMTkzLjY0MDYiIHkyPSIxOTMuNjQwNiIvPjx0ZXh0IGZpbGw9IiMwMDAwMDAiIGZvbnQtZmFtaWx5PSJzYW5zLXNlcmlmIiBmb250LXNpemU9IjEzIiBsZW5ndGhBZGp1c3Q9InNwYWNpbmciIHRleHRMZW5ndGg9IjciIHg9IjI0NSIgeT0iMTkwLjAxNTYiPjE8L3RleHQ+PHBvbHlnb24gZmlsbD0iIzE4MTgxOCIgcG9pbnRzPSIxMzYsMjE3LjU1NDcsMTI2LDIyMS41NTQ3LDEzNiwyMjUuNTU0NywxMzIsMjIxLjU1NDciIHN0eWxlPSJzdHJva2U6IzE4MTgxODtzdHJva2Utd2lkdGg6MS4wOyIvPjxsaW5lIHN0eWxlPSJzdHJva2U6IzE4MTgxODtzdHJva2Utd2lkdGg6MS4wO3N0cm9rZS1kYXNoYXJyYXk6Mi4wLDIuMDsiIHgxPSIxMzAiIHgyPSIyMjIiIHkxPSIyMjEuNTU0NyIgeTI9IjIyMS41NTQ3Ii8+PHRleHQgZmlsbD0iIzAwMDAwMCIgZm9udC1mYW1pbHk9InNhbnMtc2VyaWYiIGZvbnQtc2l6ZT0iMTMiIGxlbmd0aEFkanVzdD0ic3BhY2luZyIgdGV4dExlbmd0aD0iNyIgeD0iMTQyIiB5PSIyMTcuOTI5NyI+MjwvdGV4dD48cG9seWdvbiBmaWxsPSIjMTgxODE4IiBwb2ludHM9IjMzLDI0NS40Njg4LDIzLDI0OS40Njg4LDMzLDI1My40Njg4LDI5LDI0OS40Njg4IiBzdHlsZT0ic3Ryb2tlOiMxODE4MTg7c3Ryb2tlLXdpZHRoOjEuMDsiLz48bGluZSBzdHlsZT0ic3Ryb2tlOiMxODE4MTg7c3Ryb2tlLXdpZHRoOjEuMDtzdHJva2UtZGFzaGFycmF5OjIuMCwyLjA7IiB4MT0iMjciIHgyPSIxMTkiIHkxPSIyNDkuNDY4OCIgeTI9IjI0OS40Njg4Ii8+PHRleHQgZmlsbD0iIzAwMDAwMCIgZm9udC1mYW1pbHk9InNhbnMtc2VyaWYiIGZvbnQtc2l6ZT0iMTMiIGxlbmd0aEFkanVzdD0ic3BhY2luZyIgdGV4dExlbmd0aD0iNyIgeD0iMzkiIHk9IjI0NS44NDM4Ij4yPC90ZXh0PjwhLS1TUkM9W1RPdW4zZUNtMzRMdGR5OVlRV1M2NjNqS0loOXN4RzVTU0FhNUpMNVlxVWl0MkdqNU9kdEZfdF83S1ZuQ1dUeHU4anpfV3dZb25vVERhRzZlcXFfMFUtRzB3S1FiYXZjeU9aTDlMQXdHOGZmX0NKUTVzWHJqMnRLMGtHaGhBdmVCM2xBdTRWazFKLVV5OG1pZmZwZW1zVGkzUm01aXpreDBFdDFPaF9hNlVqeG1kNWs3c3dzbVBKMjlfRGRFY0h5MF0tLT48L2c+PC9zdmc+;" vertex="1" parent="1">
            <mxGeometry x="201" y="86" width="346" height="346" as="geometry" />
          </mxCell>
        </UserObject>
      </root>
    </mxGraphModel>
  </diagram>
</mxfile>
